<svg xmlns="http://www.w3.org/2000/svg" viewBox="0 0 1000 1200">
  <!-- 北海道 -->
  <path id="北海道" d="M700 50 L850 100 L820 200 L650 180 Z" />
  <!-- 青森 -->
  <path id="青森県" d="M650 220 L720 240 L700 300 L630 280 Z" />
  <!-- 宮城 -->
  <path id="宮城県" d="M670 320 L740 340 L720 400 L650 380 Z" />
  <!-- 東京都 -->
  <path id="東京都" d="M600 520 L630 520 L630 550 L600 550 Z" />
  <!-- 神奈川県 -->
  <path id="神奈川県" d="M590 560 L640 560 L640 600 L590 600 Z" />
  <!-- 愛知県 -->
  <path id="愛知県" d="M500 600 L560 600 L560 640 L500 640 Z" />
  <!-- 大阪府 -->
  <path id="大阪府" d="M460 650 L500 650 L500 690 L460 690 Z" />
  <!-- 兵庫県 -->
  <path id="兵庫県" d="M420 650 L460 650 L460 690 L420 690 Z" />
  <!-- 広島県 -->
  <path id="広島県" d="M360 700 L420 700 L420 740 L360 740 Z" />
  <!-- 福岡県 -->
  <path id="福岡県" d="M300 780 L360 780 L360 820 L300 820 Z" />
  <!-- 沖縄県 -->
  <path id="沖縄県" d="M780 900 L840 900 L840 940 L780 940 Z" />
</svg>
